<svg width="18" height="18" viewBox="0 0 18 18" fill="none" xmlns="http://www.w3.org/2000/svg">
<path d="M15.2679 2.65179C13.6205 0.964286 11.3705 0 8.95982 0C4.05804 0 0.0401786 4.01786 0.0401786 8.91964C0.0401786 10.5268 0.482143 12.0536 1.24554 13.3795L0 18L4.70089 16.7946C6.02679 17.4777 7.47321 17.8795 8.95982 17.8795C13.9018 17.8795 18 13.8616 18 8.95982C18 6.54911 16.9554 4.33929 15.2679 2.65179ZM8.95982 16.3527C7.63393 16.3527 6.34821 15.9911 5.18304 15.308L4.94196 15.1473L2.12946 15.9107L2.89286 13.1786L2.69196 12.8973C1.96875 11.692 1.56696 10.3259 1.56696 8.91964C1.56696 4.86161 4.90179 1.52679 9 1.52679C10.9688 1.52679 12.817 2.29018 14.2232 3.69643C15.6295 5.10268 16.4732 6.95089 16.4732 8.95982C16.4732 13.0179 13.058 16.3527 8.95982 16.3527ZM13.058 10.808C12.817 10.6875 11.7321 10.1652 11.5312 10.0848C11.3304 10.0045 11.1696 9.96429 11.0089 10.2054C10.8884 10.4062 10.4464 10.9286 10.3259 11.0893C10.1652 11.2098 10.0446 11.25 9.84375 11.1295C8.51786 10.4866 7.67411 9.96429 6.79018 8.47768C6.54911 8.07589 7.03125 8.11607 7.43304 7.27232C7.51339 7.11161 7.47321 6.99107 7.43304 6.87054C7.39286 6.75 6.91071 5.66518 6.75 5.22321C6.54911 4.78125 6.38839 4.82143 6.22768 4.82143C6.10714 4.82143 5.94643 4.82143 5.82589 4.82143C5.66518 4.82143 5.42411 4.86161 5.22321 5.10268C5.02232 5.34375 4.45982 5.86607 4.45982 6.95089C4.45982 8.07589 5.22321 9.12054 5.34375 9.28125C5.46429 9.40179 6.91071 11.6518 9.16071 12.6161C10.567 13.2589 11.1295 13.2991 11.8527 13.1786C12.2545 13.1384 13.1384 12.6562 13.3393 12.1339C13.5402 11.6116 13.5402 11.1696 13.4598 11.0893C13.4196 10.9688 13.2589 10.9286 13.058 10.808Z" fill="white"/>
</svg>
