<svg style="display: none">
      <symbol id="whatsapp-icon" xmlns="http://www.w3.org/2000/svg" width="20" height="20" viewBox="0 0 20 20" fill="none">
        <g>
          <path d="M16.9643 2.94643C15.1339 1.07143 12.6339 0 9.95536 0C4.50893 0 0.0446429 4.46429 0.0446429 9.91072C0.0446429 11.6964 0.535714 13.3929 1.38393 14.8661L0 20L5.22321 18.6607C6.69643 19.4196 8.30357 19.8661 9.95536 19.8661C15.4464 19.8661 20 15.4018 20 9.95536C20 7.27679 18.8393 4.82143 16.9643 2.94643ZM9.95536 18.1696C8.48214 18.1696 7.05357 17.7679 5.75893 17.0089L5.49107 16.8304L2.36607 17.6786L3.21429 14.6429L2.99107 14.3304C2.1875 12.9911 1.74107 11.4732 1.74107 9.91072C1.74107 5.40179 5.44643 1.69643 10 1.69643C12.1875 1.69643 14.2411 2.54464 15.8036 4.10714C17.3661 5.66964 18.3036 7.72321 18.3036 9.95536C18.3036 14.4643 14.5089 18.1696 9.95536 18.1696ZM14.5089 12.0089C14.2411 11.875 13.0357 11.2946 12.8125 11.2054C12.5893 11.1161 12.4107 11.0714 12.2321 11.3393C12.0982 11.5625 11.6071 12.1429 11.4732 12.3214C11.2946 12.4554 11.1607 12.5 10.9375 12.3661C9.46429 11.6518 8.52679 11.0714 7.54464 9.41964C7.27679 8.97322 7.8125 9.01786 8.25893 8.08036C8.34821 7.90179 8.30357 7.76786 8.25893 7.63393C8.21429 7.5 7.67857 6.29464 7.5 5.80357C7.27679 5.3125 7.09821 5.35714 6.91964 5.35714C6.78571 5.35714 6.60714 5.35714 6.47321 5.35714C6.29464 5.35714 6.02679 5.40179 5.80357 5.66964C5.58036 5.9375 4.95536 6.51786 4.95536 7.72321C4.95536 8.97322 5.80357 10.1339 5.9375 10.3125C6.07143 10.4464 7.67857 12.9464 10.1786 14.0179C11.7411 14.7321 12.3661 14.7768 13.1696 14.6429C13.6161 14.5982 14.5982 14.0625 14.8214 13.4821C15.0446 12.9018 15.0446 12.4107 14.9554 12.3214C14.9107 12.1875 14.7321 12.1429 14.5089 12.0089Z" fill="white"/>
        </g>
      </symbol>

      <symbol id="control-prev-icon" xmlns="http://www.w3.org/2000/svg" width="15" height="28" viewBox="0 0 10 22" fill="none">
        <g>
          <path d="M9 0.887573L5.47406 4.38219C2.6622 7.16908 1.25626 8.56252 1.03978 10.2609C0.986741 10.677 0.98674 11.0981 1.03978 11.5142C1.25626 13.2126 2.66219 14.6061 5.47406 17.393L9 20.8876" stroke="#D43B72" stroke-width="1.5" stroke-linecap="round" />
        </g>
      </symbol>

      <symbol id="control-next-icon" xmlns="http://www.w3.org/2000/svg" width="15" height="28" viewBox="0 0 10 22" fill="none">
          <path d="M1 0.887573L4.52594 4.38219C7.3378 7.16908 8.74374 8.56252 8.96022 10.2609C9.01326 10.677 9.01326 11.0981 8.96022 11.5142C8.74374 13.2126 7.33781 14.6061 4.52594 17.393L1 20.8876" stroke="#D43B72" stroke-width="1.5" stroke-linecap="round" />
      </symbol>

      <symbol id="reviews-icon" xmlns="http://www.w3.org/2000/svg" width="20" height="21" viewBox="0 0 20 21" fill="none">
        <g>
          <path d="M6.79909 17.7824L7.33946 17.2623H7.33946L6.79909 17.7824ZM6.79119 17.7742L6.25371 18.2973L6.79119 17.7742ZM6.08008 17.4717L6.08422 16.7217L6.08008 17.4717ZM13.9199 17.4717L13.9158 16.7217L13.9199 17.4717ZM13.2009 17.7824L12.6605 17.2623L13.2009 17.7824ZM13.2088 17.7742L13.7463 18.2973L13.2088 17.7742ZM12.8819 18.1138L13.4223 18.6339L12.8819 18.1138ZM7.11805 18.1138L6.57769 18.6339H6.57769L7.11805 18.1138ZM1.00029 12.5256L0.250335 12.5337L1.00029 12.5256ZM5.94604 17.4714L5.93795 18.2213L5.94604 17.4714ZM18.9997 12.5256L19.7497 12.5337L18.9997 12.5256ZM14.054 17.4714L14.0621 18.2213L14.054 17.4714ZM16.3962 1.71964L16.7557 1.06138V1.06138L16.3962 1.71964ZM18.3884 3.71179L19.0467 3.35235L18.3884 3.71179ZM3.60375 1.71964L3.24432 1.06138V1.06138L3.60375 1.71964ZM1.61161 3.71179L0.953347 3.35235H0.953347L1.61161 3.71179ZM10.8003 5.681L11.2021 6.31432L10.8003 5.681ZM14.1557 5.83839L14.6912 5.31328H14.6912L14.1557 5.83839ZM5.84426 5.83839L6.37976 6.3635L5.84426 5.83839ZM9.19965 5.681L9.60139 5.04767L9.19965 5.681ZM9.18182 1.85803H10.8182V0.358032H9.18182V1.85803ZM18.25 9.28985V12.403H19.75V9.28985H18.25ZM1.75 12.403V9.28985H0.25V12.403H1.75ZM12.6605 17.2623L12.3416 17.5937L13.4223 18.6339L13.7413 18.3025L12.6605 17.2623ZM7.65842 17.5937L7.33946 17.2623L6.25873 18.3025L6.57769 18.6339L7.65842 17.5937ZM7.33946 17.2623C7.33615 17.2589 7.33241 17.255 7.32868 17.2511L6.25371 18.2973C6.25359 18.2972 6.25372 18.2973 6.25452 18.2981C6.25543 18.2991 6.2566 18.3003 6.25873 18.3025L7.33946 17.2623ZM6.0687 18.2217C6.07173 18.2217 6.07342 18.2217 6.0747 18.2217C6.07584 18.2217 6.07605 18.2217 6.07593 18.2217L6.08422 16.7217C6.0789 16.7217 6.07361 16.7217 6.0687 16.7217V18.2217ZM7.32868 17.2511C7.00156 16.915 6.55323 16.7243 6.08422 16.7217L6.07593 18.2217C6.14293 18.222 6.20698 18.2493 6.25371 18.2973L7.32868 17.2511ZM13.9313 16.7217C13.9264 16.7217 13.9211 16.7217 13.9158 16.7217L13.9241 18.2217C13.924 18.2217 13.9242 18.2217 13.9253 18.2217C13.9266 18.2217 13.9283 18.2217 13.9313 18.2217V16.7217ZM13.7413 18.3025C13.7434 18.3003 13.7446 18.2991 13.7455 18.2982C13.7462 18.2973 13.7464 18.2972 13.7463 18.2973L12.6713 17.2511C12.6676 17.255 12.6639 17.2588 12.6605 17.2623L13.7413 18.3025ZM13.9158 16.7217C13.4468 16.7243 12.9984 16.915 12.6713 17.2511L13.7463 18.2973C13.793 18.2493 13.8571 18.222 13.9241 18.2217L13.9158 16.7217ZM12.3416 17.5937C11.6496 18.3127 11.1826 18.7955 10.7872 19.1081C10.4088 19.4072 10.1884 19.474 10 19.474V20.974C10.6625 20.974 11.206 20.6891 11.7174 20.2848C12.2118 19.894 12.7603 19.3217 13.4223 18.6339L12.3416 17.5937ZM6.57769 18.6339C7.23971 19.3217 7.78823 19.894 8.28257 20.2848C8.79398 20.6891 9.3375 20.974 10 20.974V19.474C9.81159 19.474 9.59116 19.4072 9.21283 19.1081C8.81742 18.7955 8.35043 18.3127 7.65842 17.5937L6.57769 18.6339ZM0.25 12.403C0.25 12.4648 0.249989 12.5017 0.250335 12.5337L1.75025 12.5175C1.75001 12.4956 1.75 12.4687 1.75 12.403H0.25ZM6.0687 16.7217C6.00297 16.7217 5.97605 16.7217 5.95413 16.7214L5.93795 18.2213C5.96999 18.2217 6.00686 18.2217 6.0687 18.2217V16.7217ZM0.250335 12.5337C0.284084 15.6608 2.81085 18.1876 5.93795 18.2213L5.95413 16.7214C3.6428 16.6965 1.77519 14.8289 1.75025 12.5175L0.250335 12.5337ZM18.25 12.403C18.25 12.4687 18.25 12.4956 18.2498 12.5175L19.7497 12.5337C19.75 12.5017 19.75 12.4648 19.75 12.403H18.25ZM13.9313 18.2217C13.9931 18.2217 14.03 18.2217 14.0621 18.2213L14.0459 16.7214C14.024 16.7217 13.997 16.7217 13.9313 16.7217V18.2217ZM18.2498 12.5175C18.2248 14.8289 16.3572 16.6965 14.0459 16.7214L14.0621 18.2213C17.1891 18.1876 19.7159 15.6608 19.7497 12.5337L18.2498 12.5175ZM10.8182 1.85803C12.3173 1.85803 13.3938 1.85869 14.237 1.93169C15.0706 2.00386 15.6056 2.14245 16.0368 2.3779L16.7557 1.06138C16.0668 0.685218 15.2988 0.518009 14.3664 0.437278C13.4435 0.357377 12.291 0.358032 10.8182 0.358032V1.85803ZM19.75 9.28985C19.75 7.81701 19.7507 6.66452 19.6708 5.74165C19.59 4.80921 19.4228 4.04124 19.0467 3.35235L17.7301 4.07122C17.9656 4.50241 18.1042 5.03747 18.1763 5.87104C18.2493 6.71419 18.25 7.7907 18.25 9.28985H19.75ZM16.0368 2.3779C16.7519 2.76836 17.3397 3.35614 17.7301 4.07122L19.0467 3.35235C18.5184 2.38488 17.7231 1.58965 16.7557 1.06138L16.0368 2.3779ZM9.18182 0.358032C7.70897 0.358032 6.55649 0.357377 5.63362 0.437278C4.70118 0.518009 3.9332 0.685218 3.24432 1.06138L3.96319 2.3779C4.39438 2.14245 4.92944 2.00386 5.76301 1.93169C6.60616 1.85869 7.68267 1.85803 9.18182 1.85803V0.358032ZM1.75 9.28985C1.75 7.7907 1.75066 6.71419 1.82366 5.87104C1.89583 5.03747 2.03442 4.50241 2.26986 4.07122L0.953347 3.35235C0.577186 4.04124 0.409977 4.80921 0.329246 5.74165C0.249345 6.66452 0.25 7.817 0.25 9.28985H1.75ZM3.24432 1.06138C2.27685 1.58965 1.48162 2.38488 0.953347 3.35235L2.26986 4.07122C2.66033 3.35614 3.24811 2.76836 3.96319 2.3779L3.24432 1.06138ZM11.2021 6.31432C11.5691 6.0815 11.9942 5.89266 12.4089 5.8623C12.7861 5.83469 13.1972 5.93204 13.6202 6.3635L14.6912 5.31328C13.9472 4.55454 13.099 4.30778 12.2994 4.36631C11.5374 4.42209 10.8684 4.74966 10.3986 5.04767L11.2021 6.31432ZM13.6202 6.3635C14.1308 6.8842 14.3067 7.52123 14.2347 8.24861C14.1605 8.999 13.8194 9.82981 13.3035 10.6242C12.7906 11.4138 12.1351 12.1207 11.4941 12.6228C10.8204 13.1504 10.2841 13.358 10 13.358V14.858C10.8034 14.858 11.6767 14.3851 12.419 13.8036C13.194 13.1967 13.9609 12.3658 14.5614 11.4412C15.1589 10.5214 15.6221 9.46134 15.7274 8.39629C15.8351 7.30824 15.5659 6.20524 14.6912 5.31328L13.6202 6.3635ZM10 13.358C9.71588 13.358 9.17959 13.1504 8.50593 12.6228C7.86488 12.1207 7.20938 11.4138 6.69653 10.6242C6.18059 9.82981 5.83952 8.999 5.76528 8.24861C5.69331 7.52123 5.86916 6.88421 6.37976 6.3635L5.30876 5.31328C4.43411 6.20524 4.16492 7.30824 4.27257 8.3963C4.37794 9.46134 4.84113 10.5214 5.43856 11.4412C6.03907 12.3658 6.80603 13.1967 7.58099 13.8037C8.32334 14.3851 9.1966 14.858 10 14.858V13.358ZM6.37976 6.3635C6.80285 5.93205 7.21387 5.8347 7.59105 5.86231C8.00575 5.89267 8.43087 6.0815 8.7979 6.31432L9.60139 5.04767C9.13159 4.74966 8.46257 4.4221 7.70056 4.36631C6.90102 4.30778 6.05278 4.55455 5.30876 5.31328L6.37976 6.3635ZM10.3986 5.04767C10.171 5.19205 9.82899 5.19205 9.60139 5.04767L8.7979 6.31432C9.51598 6.76983 10.484 6.76983 11.2021 6.31432L10.3986 5.04767Z" fill="#D43B72"/>
        </g>
      </symbol>


      <symbol id="question-icon" xmlns="http://www.w3.org/2000/svg" width="23" height="22" viewBox="0 0 23 22" fill="none">
        <path d="M14.3532 17.9529C16.1394 15.2364 15.839 11.5484 13.4521 9.15847C11.0451 6.74842 7.31971 6.46292 4.60034 8.30198M14.3532 17.9529C14.0961 18.344 13.7957 18.7149 13.4521 19.0589C11.8638 20.6492 8.49563 22.0241 5.76196 20.3326C5.60983 20.2385 5.53377 20.1914 5.47625 20.1686C5.36629 20.125 5.28289 20.1124 5.16496 20.1215C5.10329 20.1263 5.03341 20.1445 4.89365 20.1807C4.01422 20.4089 3.5745 20.5231 3.25772 20.4585C2.7079 20.3465 2.27821 19.9162 2.16631 19.3657C2.10184 19.0485 2.21581 18.6083 2.44375 17.7277C2.47998 17.5878 2.4981 17.5178 2.50285 17.4558C2.5119 17.3378 2.49904 17.2533 2.45528 17.1433C2.43232 17.0855 2.38538 17.0099 2.2915 16.8587C0.596343 14.1275 1.90825 10.8165 3.56419 9.15847C3.88764 8.83461 4.23491 8.54911 4.60034 8.30198M14.3532 17.9529L14.5 17.9278C15.1216 17.7785 15.7353 17.5312 16.3248 17.1665C16.5095 17.0522 16.6019 16.995 16.6717 16.9673C16.8052 16.9144 16.9065 16.8991 17.0497 16.9102C17.1246 16.9159 17.2094 16.938 17.3791 16.982C18.447 17.2591 18.981 17.3977 19.3656 17.3193C20.0333 17.1833 20.555 16.6609 20.6909 15.9924C20.7692 15.6072 20.6308 15.0726 20.354 14.0034C20.31 13.8334 20.288 13.7484 20.2823 13.6732C20.2713 13.5298 20.2869 13.4273 20.34 13.2937C20.3679 13.2236 20.4249 13.1317 20.5389 12.9481C22.5973 9.63167 21.0043 5.61117 18.9935 3.59785C15.6779 0.278092 10.3023 0.278092 6.98669 3.59785C5.6619 4.92431 4.86645 6.58007 4.60034 8.30198" stroke="#D43B72" stroke-width="1.5"/>
        <path d="M10.5 14.108C10.5 14.6603 10.9477 15.108 11.5 15.108C12.0523 15.108 12.5 14.6603 12.5 14.108C12.5 13.5557 12.0523 13.108 11.5 13.108C10.9477 13.108 10.5 13.5557 10.5 14.108Z" fill="#D43B72"/>
        <path d="M7.5 14.108C7.5 14.6603 7.94772 15.108 8.5 15.108C9.05228 15.108 9.5 14.6603 9.5 14.108C9.5 13.5557 9.05228 13.108 8.5 13.108C7.94772 13.108 7.5 13.5557 7.5 14.108Z" fill="#D43B72"/>
        <path d="M4.5 14.108C4.5 14.6603 4.94772 15.108 5.5 15.108C6.05228 15.108 6.5 14.6603 6.5 14.108C6.5 13.5557 6.05228 13.108 5.5 13.108C4.94772 13.108 4.5 13.5557 4.5 14.108Z" fill="#D43B72"/>
      </symbol>

      <symbol id="breadcrumb-icon" xmlns="http://www.w3.org/2000/svg" width="6" height="10" viewBox="0 0 6 10" fill="none">
        <path d="M1.5 1.25L2.82223 2.56048C3.87668 3.60556 4.4039 4.12811 4.48508 4.765C4.50497 4.92105 4.50497 5.07895 4.48508 5.235C4.4039 5.87189 3.87668 6.39443 2.82223 7.43952L1.5 8.75" stroke="#D43B72" stroke-width="1.5" stroke-linecap="round" />
      </symbol>
</svg>


